<svg xmlns="http://www.w3.org/2000/svg" viewBox="0 0 146 60"><defs><style>.cls-1{fill:#231815;}.cls-2{fill:#ef8200;}</style></defs><g id="湘南W"><path class="cls-1" d="M42.094.058,39.047,25.3H35.08L33.7,12.483,32.293,25.3H28.36L25.409.058H29.8L30.85,13.433,32.2.058h3.016l1.41,13.67L37.7.058Z"/><path class="cls-1" d="M53.959,25.236H45.107V.058h8.818V3.533H49.467v6.982h3.7v3.541h-3.7v7.705h4.492Z"/><path class="cls-1" d="M66.183,25.236h-8.85V.058h8.818V3.533H61.693v6.982h3.7v3.541h-3.7v7.705h4.49Z"/><path class="cls-1" d="M81.13,25.3H76.606L74.542,14.973l-.624,1.641V25.3h-4.36V.058h4.36V7.5L76.574.058h4.162L77.262,9.236Z"/><path class="cls-1" d="M92.5,25.3H83.652V.058h4.36V21.727H92.5Z"/><path class="cls-1" d="M104.99.058,101.319,15.5v9.8h-4.36V15.466L93.287.058h4.59L99.319,9.6l1.575-9.54Z"/><path class="cls-1" d="M63.636,59.672h-4.2v-11.8l-1.868,11.8h-2.69l-1.966-11.8v11.8h-3.6V34.431h5.047l2,14.85,2.36-14.85h4.917Z"/><path class="cls-1" d="M78.122,54.427c0,4.132-2.459,5.573-5.377,5.573-2.983,0-5.507-1.541-5.507-5.573V39.576c0-4.1,2.558-5.573,5.507-5.573s5.377,1.443,5.377,5.573ZM73.8,38.725c0-.983-.558-1.377-1.083-1.377-.655,0-1.115.394-1.115,1.377V55.248c0,.949.427,1.377,1.147,1.377.656,0,1.051-.394,1.051-1.345Z"/><path class="cls-1" d="M91.823,59.672H88.61L85.365,46.724V59.672H81.758V34.431h3.671l2.787,11.178V34.431h3.607Z"/><path class="cls-1" d="M106.343,37.906H102.9V59.672H98.54V37.906H95.131V34.431h11.212Z"/><path class="cls-1" d="M120.8,59.672h-4.328V48.526h-2.492V59.608h-4.326V34.431h4.326V44.985h2.492V34.431H120.8Z"/><path class="cls-1" d="M133.514,59.672h-8.852V34.431h4.36V56.1h4.492Z"/><path class="cls-1" d="M146,34.431l-3.671,15.44v9.8h-4.36V49.839L134.3,34.431h4.589l1.443,9.539,1.574-9.539Z"/><path class="cls-2" d="M28.44,42.353c0,5.672-3.928,9.635-9.554,9.635s-9.553-3.83-9.553-9.313c0-5.16,3.8-8.943,9.109-9.143V26.018A8.944,8.944,0,0,1,9.816,16.8c0-5.283,3.523-9.019,8.626-9.223V.074C8.4.269,1.434,7.091,1.434,16.8A16.48,16.48,0,0,0,7.246,29.2l.41.356-.43.333A15.859,15.859,0,0,0,.869,42.675c0,9.424,7.914,16.807,18.017,16.807,10.44,0,18.018-7.2,18.018-17.129v-.445h7.417v-7.5H28.44Z"/></g></svg>